<svg width="399" height="70" viewBox="0 0 399 70" fill="none" xmlns="http://www.w3.org/2000/svg">
<g filter="url(#filter0_d_1_2)">
<mask id="path-1-outside-1_1_2" maskUnits="userSpaceOnUse" x="3" y="-1" width="393" height="64" fill="black">
<rect fill="white" x="3" y="-1" width="393" height="64"/>
<path d="M12.616 49.536C10.0133 49.536 7.304 48.8107 4.488 47.36L5.64 43.904C7.51733 44.5013 8.98933 44.8 10.056 44.8C13.128 44.8 14.664 42.88 14.664 39.04C14.664 38.4427 13.7467 27.5627 11.912 6.4L27.144 5.44L23.56 38.976C22.792 46.016 19.144 49.536 12.616 49.536ZM47.1055 13.504C57.4308 17.6427 62.5935 22.784 62.5935 28.928C62.5935 32.128 61.6762 34.4533 59.8415 35.904C58.0495 37.312 54.7002 38.016 49.7935 38.016C46.6788 38.016 44.1188 37.7813 42.1135 37.312C41.3028 39.3173 40.8975 41.408 40.8975 43.584C42.8175 43.84 44.9935 43.968 47.4255 43.968C51.8628 43.968 56.0442 43.264 59.9695 41.856L61.8895 48.064C58.7748 49.0453 55.2762 49.536 51.3935 49.536C44.4815 49.536 39.4042 48.2773 36.1615 45.76C35.4788 42.7307 35.1375 39.872 35.1375 37.184C35.1375 31.808 36.3108 26.9653 38.6575 22.656C41.0468 18.3467 43.8628 15.296 47.1055 13.504ZM43.3935 34.304C43.9482 34.3467 45.3348 34.368 47.5535 34.368C49.8148 34.368 52.3962 34.0693 55.2975 33.472C55.4255 32.6613 55.4895 31.8507 55.4895 31.04C55.4895 28.48 54.7855 26.0267 53.3775 23.68C49.1535 26.496 45.8255 30.0373 43.3935 34.304ZM81.293 13.504C91.6183 17.6427 96.781 22.784 96.781 28.928C96.781 32.128 95.8637 34.4533 94.029 35.904C92.237 37.312 88.8877 38.016 83.981 38.016C80.8663 38.016 78.3063 37.7813 76.301 37.312C75.4903 39.3173 75.085 41.408 75.085 43.584C77.005 43.84 79.181 43.968 81.613 43.968C86.0503 43.968 90.2317 43.264 94.157 41.856L96.077 48.064C92.9623 49.0453 89.4637 49.536 85.581 49.536C78.669 49.536 73.5917 48.2773 70.349 45.76C69.6663 42.7307 69.325 39.872 69.325 37.184C69.325 31.808 70.4983 26.9653 72.845 22.656C75.2343 18.3467 78.0503 15.296 81.293 13.504ZM77.581 34.304C78.1357 34.3467 79.5223 34.368 81.741 34.368C84.0023 34.368 86.5837 34.0693 89.485 33.472C89.613 32.6613 89.677 31.8507 89.677 31.04C89.677 28.48 88.973 26.0267 87.565 23.68C83.341 26.496 80.013 30.0373 77.581 34.304ZM115.929 15.168L120.153 39.68H120.665L128.921 15.36L134.104 16.768L121.625 48.128L116.441 48.96L102.233 17.28L115.929 15.168ZM143.744 48.96L140.48 17.28L154.176 15.168L150.08 48.384L143.744 48.96ZM142.464 10.176C141.312 8.98133 140.736 7.57333 140.736 5.952C140.736 4.33066 141.312 2.944 142.464 1.792C143.659 0.597329 145.067 -3.8147e-06 146.688 -3.8147e-06C148.309 -3.8147e-06 149.696 0.597329 150.848 1.792C152.043 2.944 152.64 4.33066 152.64 5.952C152.64 7.57333 152.043 8.98133 150.848 10.176C149.696 11.328 148.309 11.904 146.688 11.904C145.067 11.904 143.659 11.328 142.464 10.176ZM192.289 17.024L182.369 27.392L196.257 48.128L184.097 48.96L176.097 33.984L173.793 36.16L172.705 48.384L166.369 48.96L163.105 4.288L176.801 2.176L174.369 29.824L188.001 13.696L192.289 17.024ZM205.515 49.472C204.79 49.472 204.256 49.4507 203.915 49.408C202.464 48.4267 201.291 46.976 200.395 45.056C199.542 43.0933 199.115 41.0667 199.115 38.976C199.115 36.2453 200.139 34.2613 202.187 33.024C204.278 31.7867 208.096 31.168 213.643 31.168C215.691 31.168 217.824 31.3173 220.043 31.616L219.915 30.208C219.744 28.5013 218.934 27.1573 217.483 26.176C216.032 25.152 214.176 24.64 211.915 24.64C209.654 24.64 207.392 25.344 205.131 26.752L202.315 17.472C205.984 15.9787 210.166 15.232 214.859 15.232C219.552 15.232 223.264 16.2987 225.995 18.432C228.726 20.5227 230.091 23.808 230.091 28.288C230.091 29.312 230.048 30.1227 229.963 30.72L228.171 48.384L221.835 48.96L220.875 39.68H220.363C218.912 42.752 216.907 45.1627 214.347 46.912C211.787 48.6187 208.843 49.472 205.515 49.472ZM220.299 34.304L216.907 34.24C214.091 34.24 211.787 34.3893 209.995 34.688C209.398 35.8827 209.099 36.9493 209.099 37.888C209.099 38.8267 209.227 39.7227 209.483 40.576C209.739 41.4293 210.016 42.0053 210.315 42.304C215.435 41.4933 218.763 38.8267 220.299 34.304ZM260.804 49.536C258.201 49.536 255.492 48.8107 252.675 47.36L253.828 43.904C255.705 44.5013 257.177 44.8 258.244 44.8C261.316 44.8 262.852 42.88 262.852 39.04C262.852 38.4427 261.934 27.5627 260.1 6.4L275.332 5.44L271.748 38.976C270.98 46.016 267.332 49.536 260.804 49.536ZM311.357 36.224C311.357 40.8747 310.333 44.2667 308.285 46.4C306.28 48.4907 302.546 49.536 297.085 49.536C291.624 49.536 287.357 48.2987 284.285 45.824C283.645 42.752 283.325 39.68 283.325 36.608C283.325 33.536 283.752 30.656 284.605 27.968C285.501 25.2373 286.61 22.912 287.933 20.992C290.706 17.0667 293.181 14.5707 295.357 13.504C299.453 15.5947 303.058 18.432 306.173 22.016C309.629 25.9413 311.357 30.6773 311.357 36.224ZM303.933 34.496C303.933 30.4427 303.08 26.7307 301.373 23.36C297.832 25.2373 294.909 28.096 292.605 31.936C290.301 35.776 289.149 39.6587 289.149 43.584C290.514 43.84 292.477 43.968 295.037 43.968C297.597 43.968 300.221 43.52 302.909 42.624C303.592 40.0213 303.933 37.312 303.933 34.496ZM322.307 48.96L319.043 4.288L332.739 2.176L328.643 48.384L322.307 48.96ZM344.932 48.96L341.668 4.288L355.364 2.176L351.268 48.384L344.932 48.96ZM380.229 51.712C378.735 55.424 377.178 57.984 375.557 59.392C373.978 60.8427 371.866 61.568 369.22 61.568C366.618 61.568 364.122 60.608 361.733 58.688L363.653 55.424C365.061 55.936 366.597 56.192 368.26 56.192C369.967 56.192 371.503 55.6373 372.869 54.528C374.234 53.4187 375.109 51.7333 375.493 49.472L362.245 17.28L375.941 15.168L380.165 39.744H380.677L388.933 15.36L394.117 16.768L380.229 51.712Z"/>
</mask>
<path d="M12.616 49.536C10.0133 49.536 7.304 48.8107 4.488 47.36L5.64 43.904C7.51733 44.5013 8.98933 44.8 10.056 44.8C13.128 44.8 14.664 42.88 14.664 39.04C14.664 38.4427 13.7467 27.5627 11.912 6.4L27.144 5.44L23.56 38.976C22.792 46.016 19.144 49.536 12.616 49.536ZM47.1055 13.504C57.4308 17.6427 62.5935 22.784 62.5935 28.928C62.5935 32.128 61.6762 34.4533 59.8415 35.904C58.0495 37.312 54.7002 38.016 49.7935 38.016C46.6788 38.016 44.1188 37.7813 42.1135 37.312C41.3028 39.3173 40.8975 41.408 40.8975 43.584C42.8175 43.84 44.9935 43.968 47.4255 43.968C51.8628 43.968 56.0442 43.264 59.9695 41.856L61.8895 48.064C58.7748 49.0453 55.2762 49.536 51.3935 49.536C44.4815 49.536 39.4042 48.2773 36.1615 45.76C35.4788 42.7307 35.1375 39.872 35.1375 37.184C35.1375 31.808 36.3108 26.9653 38.6575 22.656C41.0468 18.3467 43.8628 15.296 47.1055 13.504ZM43.3935 34.304C43.9482 34.3467 45.3348 34.368 47.5535 34.368C49.8148 34.368 52.3962 34.0693 55.2975 33.472C55.4255 32.6613 55.4895 31.8507 55.4895 31.04C55.4895 28.48 54.7855 26.0267 53.3775 23.68C49.1535 26.496 45.8255 30.0373 43.3935 34.304ZM81.293 13.504C91.6183 17.6427 96.781 22.784 96.781 28.928C96.781 32.128 95.8637 34.4533 94.029 35.904C92.237 37.312 88.8877 38.016 83.981 38.016C80.8663 38.016 78.3063 37.7813 76.301 37.312C75.4903 39.3173 75.085 41.408 75.085 43.584C77.005 43.84 79.181 43.968 81.613 43.968C86.0503 43.968 90.2317 43.264 94.157 41.856L96.077 48.064C92.9623 49.0453 89.4637 49.536 85.581 49.536C78.669 49.536 73.5917 48.2773 70.349 45.76C69.6663 42.7307 69.325 39.872 69.325 37.184C69.325 31.808 70.4983 26.9653 72.845 22.656C75.2343 18.3467 78.0503 15.296 81.293 13.504ZM77.581 34.304C78.1357 34.3467 79.5223 34.368 81.741 34.368C84.0023 34.368 86.5837 34.0693 89.485 33.472C89.613 32.6613 89.677 31.8507 89.677 31.04C89.677 28.48 88.973 26.0267 87.565 23.68C83.341 26.496 80.013 30.0373 77.581 34.304ZM115.929 15.168L120.153 39.68H120.665L128.921 15.36L134.104 16.768L121.625 48.128L116.441 48.96L102.233 17.28L115.929 15.168ZM143.744 48.96L140.48 17.28L154.176 15.168L150.08 48.384L143.744 48.96ZM142.464 10.176C141.312 8.98133 140.736 7.57333 140.736 5.952C140.736 4.33066 141.312 2.944 142.464 1.792C143.659 0.597329 145.067 -3.8147e-06 146.688 -3.8147e-06C148.309 -3.8147e-06 149.696 0.597329 150.848 1.792C152.043 2.944 152.64 4.33066 152.64 5.952C152.64 7.57333 152.043 8.98133 150.848 10.176C149.696 11.328 148.309 11.904 146.688 11.904C145.067 11.904 143.659 11.328 142.464 10.176ZM192.289 17.024L182.369 27.392L196.257 48.128L184.097 48.96L176.097 33.984L173.793 36.16L172.705 48.384L166.369 48.96L163.105 4.288L176.801 2.176L174.369 29.824L188.001 13.696L192.289 17.024ZM205.515 49.472C204.79 49.472 204.256 49.4507 203.915 49.408C202.464 48.4267 201.291 46.976 200.395 45.056C199.542 43.0933 199.115 41.0667 199.115 38.976C199.115 36.2453 200.139 34.2613 202.187 33.024C204.278 31.7867 208.096 31.168 213.643 31.168C215.691 31.168 217.824 31.3173 220.043 31.616L219.915 30.208C219.744 28.5013 218.934 27.1573 217.483 26.176C216.032 25.152 214.176 24.64 211.915 24.64C209.654 24.64 207.392 25.344 205.131 26.752L202.315 17.472C205.984 15.9787 210.166 15.232 214.859 15.232C219.552 15.232 223.264 16.2987 225.995 18.432C228.726 20.5227 230.091 23.808 230.091 28.288C230.091 29.312 230.048 30.1227 229.963 30.72L228.171 48.384L221.835 48.96L220.875 39.68H220.363C218.912 42.752 216.907 45.1627 214.347 46.912C211.787 48.6187 208.843 49.472 205.515 49.472ZM220.299 34.304L216.907 34.24C214.091 34.24 211.787 34.3893 209.995 34.688C209.398 35.8827 209.099 36.9493 209.099 37.888C209.099 38.8267 209.227 39.7227 209.483 40.576C209.739 41.4293 210.016 42.0053 210.315 42.304C215.435 41.4933 218.763 38.8267 220.299 34.304ZM260.804 49.536C258.201 49.536 255.492 48.8107 252.675 47.36L253.828 43.904C255.705 44.5013 257.177 44.8 258.244 44.8C261.316 44.8 262.852 42.88 262.852 39.04C262.852 38.4427 261.934 27.5627 260.1 6.4L275.332 5.44L271.748 38.976C270.98 46.016 267.332 49.536 260.804 49.536ZM311.357 36.224C311.357 40.8747 310.333 44.2667 308.285 46.4C306.28 48.4907 302.546 49.536 297.085 49.536C291.624 49.536 287.357 48.2987 284.285 45.824C283.645 42.752 283.325 39.68 283.325 36.608C283.325 33.536 283.752 30.656 284.605 27.968C285.501 25.2373 286.61 22.912 287.933 20.992C290.706 17.0667 293.181 14.5707 295.357 13.504C299.453 15.5947 303.058 18.432 306.173 22.016C309.629 25.9413 311.357 30.6773 311.357 36.224ZM303.933 34.496C303.933 30.4427 303.08 26.7307 301.373 23.36C297.832 25.2373 294.909 28.096 292.605 31.936C290.301 35.776 289.149 39.6587 289.149 43.584C290.514 43.84 292.477 43.968 295.037 43.968C297.597 43.968 300.221 43.52 302.909 42.624C303.592 40.0213 303.933 37.312 303.933 34.496ZM322.307 48.96L319.043 4.288L332.739 2.176L328.643 48.384L322.307 48.96ZM344.932 48.96L341.668 4.288L355.364 2.176L351.268 48.384L344.932 48.96ZM380.229 51.712C378.735 55.424 377.178 57.984 375.557 59.392C373.978 60.8427 371.866 61.568 369.22 61.568C366.618 61.568 364.122 60.608 361.733 58.688L363.653 55.424C365.061 55.936 366.597 56.192 368.26 56.192C369.967 56.192 371.503 55.6373 372.869 54.528C374.234 53.4187 375.109 51.7333 375.493 49.472L362.245 17.28L375.941 15.168L380.165 39.744H380.677L388.933 15.36L394.117 16.768L380.229 51.712Z" fill="#0E6335" fill-opacity="0.75" shape-rendering="crispEdges"/>
<path d="M4.488 47.36L3.53932 47.0438L3.26837 47.8566L4.03004 48.249L4.488 47.36ZM5.64 43.904L5.9432 42.9511L5.00324 42.652L4.69132 43.5878L5.64 43.904ZM11.912 6.4L11.8491 5.40198L10.8273 5.46638L10.9157 6.48637L11.912 6.4ZM27.144 5.44L28.1383 5.54626L28.2643 4.36741L27.0811 4.44198L27.144 5.44ZM23.56 38.976L24.5541 39.0844L24.5543 39.0823L23.56 38.976ZM12.616 48.536C10.2036 48.536 7.65069 47.8644 4.94596 46.471L4.03004 48.249C6.95731 49.757 9.82305 50.536 12.616 50.536V48.536ZM5.43668 47.6762L6.58868 44.2202L4.69132 43.5878L3.53932 47.0438L5.43668 47.6762ZM5.3368 44.8569C7.24403 45.4638 8.83345 45.8 10.056 45.8V43.8C9.14522 43.8 7.79064 43.5389 5.9432 42.9511L5.3368 44.8569ZM10.056 45.8C11.8127 45.8 13.2886 45.24 14.2929 43.9847C15.263 42.772 15.664 41.0668 15.664 39.04H13.664C13.664 40.8532 13.297 42.028 12.7311 42.7353C12.1994 43.4 11.3713 43.8 10.056 43.8V45.8ZM15.664 39.04C15.664 38.8384 15.6008 37.9849 15.4888 36.5843C15.374 35.1475 15.2018 33.0684 14.9725 30.348C14.5137 24.9068 13.8256 16.8952 12.9083 6.31363L10.9157 6.48637C11.8331 17.0675 12.521 25.0772 12.9795 30.516C13.2088 33.2356 13.3807 35.3112 13.4952 36.7437C13.5524 37.4602 13.5952 38.0139 13.6236 38.4062C13.6378 38.6026 13.6483 38.7561 13.6551 38.8683C13.6585 38.9245 13.6609 38.968 13.6624 39.0001C13.664 39.0361 13.664 39.0456 13.664 39.04H15.664ZM11.9749 7.39802L27.2069 6.43802L27.0811 4.44198L11.8491 5.40198L11.9749 7.39802ZM26.1497 5.33373L22.5657 38.8697L24.5543 39.0823L28.1383 5.54626L26.1497 5.33373ZM22.5659 38.8676C22.1973 42.2464 21.1533 44.6328 19.5536 46.1764C17.9652 47.7091 15.6985 48.536 12.616 48.536V50.536C16.0615 50.536 18.8828 49.6029 20.9424 47.6156C22.9907 45.6392 24.1547 42.7456 24.5541 39.0844L22.5659 38.8676ZM47.1055 13.504L47.4776 12.5758L47.0371 12.3992L46.6218 12.6288L47.1055 13.504ZM59.8415 35.904L60.4593 36.6903L60.4617 36.6884L59.8415 35.904ZM42.1135 37.312L42.3414 36.3383L41.5074 36.1431L41.1864 36.9372L42.1135 37.312ZM40.8975 43.584H39.8975V44.4595L40.7653 44.5752L40.8975 43.584ZM59.9695 41.856L60.9249 41.5605L60.6159 40.5617L59.6319 40.9147L59.9695 41.856ZM61.8895 48.064L62.19 49.0178L63.1388 48.7189L62.8449 47.7685L61.8895 48.064ZM36.1615 45.76L35.186 45.9798L35.2648 46.3299L35.5483 46.5499L36.1615 45.76ZM38.6575 22.656L37.7829 22.1711L37.7793 22.1778L38.6575 22.656ZM43.3935 34.304L42.5247 33.8088L41.7431 35.18L43.3168 35.3011L43.3935 34.304ZM55.2975 33.472L55.4992 34.4515L56.1773 34.3118L56.2853 33.628L55.2975 33.472ZM53.3775 23.68L54.235 23.1655L53.6954 22.2662L52.8228 22.8479L53.3775 23.68ZM46.7334 14.4322C57.0065 18.5499 61.5935 23.4569 61.5935 28.928H63.5935C63.5935 22.1111 57.8552 16.7354 47.4776 12.5758L46.7334 14.4322ZM61.5935 28.928C61.5935 31.942 60.7356 33.9222 59.2213 35.1196L60.4617 36.6884C62.6167 34.9845 63.5935 32.314 63.5935 28.928H61.5935ZM59.2237 35.1177C58.4938 35.6912 57.3731 36.1745 55.7798 36.5094C54.1949 36.8425 52.2048 37.016 49.7935 37.016V39.016C52.2889 39.016 54.4268 38.8375 56.1912 38.4666C57.9472 38.0975 59.3972 37.5248 60.4593 36.6903L59.2237 35.1177ZM49.7935 37.016C46.7207 37.016 44.2444 36.7837 42.3414 36.3383L41.8856 38.2857C43.9933 38.779 46.6369 39.016 49.7935 39.016V37.016ZM41.1864 36.9372C40.3273 39.0624 39.8975 41.2803 39.8975 43.584H41.8975C41.8975 41.5357 42.2784 39.5723 43.0406 37.6868L41.1864 36.9372ZM40.7653 44.5752C42.7385 44.8383 44.9599 44.968 47.4255 44.968V42.968C45.0271 42.968 42.8965 42.8417 41.0297 42.5928L40.7653 44.5752ZM47.4255 44.968C51.9705 44.968 56.2667 44.2466 60.3071 42.7973L59.6319 40.9147C55.8216 42.2814 51.7552 42.968 47.4255 42.968V44.968ZM59.0141 42.1515L60.9341 48.3595L62.8449 47.7685L60.9249 41.5605L59.0141 42.1515ZM61.589 47.1102C58.5879 48.0558 55.1929 48.536 51.3935 48.536V50.536C55.3594 50.536 58.9618 50.0349 62.19 49.0178L61.589 47.1102ZM51.3935 48.536C44.5654 48.536 39.7575 47.2856 36.7747 44.9701L35.5483 46.5499C39.0509 49.269 44.3976 50.536 51.3935 50.536V48.536ZM37.137 45.5402C36.4682 42.5721 36.1375 39.7877 36.1375 37.184H34.1375C34.1375 39.9563 34.4895 42.8892 35.186 45.9798L37.137 45.5402ZM36.1375 37.184C36.1375 31.9587 37.2764 27.2831 39.5357 23.1342L37.7793 22.1778C35.3452 26.6475 34.1375 31.6573 34.1375 37.184H36.1375ZM39.5321 23.1409C41.8596 18.943 44.5568 16.0551 47.5892 14.3792L46.6218 12.6288C43.1689 14.5369 40.234 17.7504 37.7829 22.1711L39.5321 23.1409ZM43.3168 35.3011C43.9184 35.3473 45.3491 35.368 47.5535 35.368V33.368C45.3205 33.368 43.9779 33.346 43.4702 33.3069L43.3168 35.3011ZM47.5535 35.368C49.8997 35.368 52.5506 35.0585 55.4992 34.4515L55.0958 32.4925C52.2417 33.0802 49.73 33.368 47.5535 33.368V35.368ZM56.2853 33.628C56.4213 32.7663 56.4895 31.9035 56.4895 31.04H54.4895C54.4895 31.7978 54.4297 32.5563 54.3097 33.316L56.2853 33.628ZM56.4895 31.04C56.4895 28.2862 55.7296 25.6564 54.235 23.1655L52.52 24.1945C53.8414 26.3969 54.4895 28.6738 54.4895 31.04H56.4895ZM52.8228 22.8479C48.4738 25.7473 45.0364 29.4023 42.5247 33.8088L44.2623 34.7992C46.6146 30.6724 49.8332 27.2447 53.9322 24.512L52.8228 22.8479ZM81.293 13.504L81.6651 12.5758L81.2246 12.3992L80.8093 12.6288L81.293 13.504ZM94.029 35.904L94.6468 36.6903L94.6492 36.6884L94.029 35.904ZM76.301 37.312L76.5289 36.3383L75.6949 36.1431L75.3739 36.9372L76.301 37.312ZM75.085 43.584H74.085V44.4595L74.9528 44.5752L75.085 43.584ZM94.157 41.856L95.1124 41.5605L94.8034 40.5617L93.8194 40.9147L94.157 41.856ZM96.077 48.064L96.3775 49.0178L97.3263 48.7189L97.0324 47.7685L96.077 48.064ZM70.349 45.76L69.3735 45.9798L69.4523 46.3299L69.7358 46.5499L70.349 45.76ZM72.845 22.656L71.9704 22.1711L71.9668 22.1778L72.845 22.656ZM77.581 34.304L76.7122 33.8088L75.9306 35.18L77.5043 35.3011L77.581 34.304ZM89.485 33.472L89.6867 34.4515L90.3648 34.3118L90.4728 33.628L89.485 33.472ZM87.565 23.68L88.4225 23.1655L87.8829 22.2662L87.0103 22.8479L87.565 23.68ZM80.9209 14.4322C91.194 18.5499 95.781 23.4569 95.781 28.928H97.781C97.781 22.1111 92.0427 16.7354 81.6651 12.5758L80.9209 14.4322ZM95.781 28.928C95.781 31.942 94.9231 33.9222 93.4088 35.1196L94.6492 36.6884C96.8042 34.9845 97.781 32.314 97.781 28.928H95.781ZM93.4112 35.1177C92.6813 35.6912 91.5606 36.1745 89.9673 36.5094C88.3824 36.8425 86.3923 37.016 83.981 37.016V39.016C86.4764 39.016 88.6143 38.8375 90.3787 38.4666C92.1347 38.0975 93.5847 37.5248 94.6468 36.6903L93.4112 35.1177ZM83.981 37.016C80.9082 37.016 78.4319 36.7837 76.5289 36.3383L76.0731 38.2857C78.1808 38.779 80.8244 39.016 83.981 39.016V37.016ZM75.3739 36.9372C74.5148 39.0624 74.085 41.2803 74.085 43.584H76.085C76.085 41.5357 76.4659 39.5723 77.2281 37.6868L75.3739 36.9372ZM74.9528 44.5752C76.926 44.8383 79.1474 44.968 81.613 44.968V42.968C79.2146 42.968 77.084 42.8417 75.2172 42.5928L74.9528 44.5752ZM81.613 44.968C86.158 44.968 90.4542 44.2466 94.4946 42.7973L93.8194 40.9147C90.0091 42.2814 85.9427 42.968 81.613 42.968V44.968ZM93.2016 42.1515L95.1216 48.3595L97.0324 47.7685L95.1124 41.5605L93.2016 42.1515ZM95.7765 47.1102C92.7754 48.0558 89.3804 48.536 85.581 48.536V50.536C89.5469 50.536 93.1493 50.0349 96.3775 49.0178L95.7765 47.1102ZM85.581 48.536C78.7529 48.536 73.945 47.2856 70.9622 44.9701L69.7358 46.5499C73.2384 49.269 78.5851 50.536 85.581 50.536V48.536ZM71.3245 45.5402C70.6557 42.5721 70.325 39.7877 70.325 37.184H68.325C68.325 39.9563 68.677 42.8892 69.3735 45.9798L71.3245 45.5402ZM70.325 37.184C70.325 31.9587 71.4639 27.2831 73.7232 23.1342L71.9668 22.1778C69.5327 26.6475 68.325 31.6573 68.325 37.184H70.325ZM73.7196 23.1409C76.0471 18.943 78.7443 16.0551 81.7767 14.3792L80.8093 12.6288C77.3564 14.5369 74.4215 17.7504 71.9704 22.1711L73.7196 23.1409ZM77.5043 35.3011C78.1059 35.3473 79.5366 35.368 81.741 35.368V33.368C79.508 33.368 78.1654 33.346 77.6577 33.3069L77.5043 35.3011ZM81.741 35.368C84.0872 35.368 86.7381 35.0585 89.6867 34.4515L89.2833 32.4925C86.4292 33.0802 83.9175 33.368 81.741 33.368V35.368ZM90.4728 33.628C90.6088 32.7663 90.677 31.9035 90.677 31.04H88.677C88.677 31.7978 88.6172 32.5563 88.4972 33.316L90.4728 33.628ZM90.677 31.04C90.677 28.2862 89.9171 25.6564 88.4225 23.1655L86.7075 24.1945C88.0289 26.3969 88.677 28.6738 88.677 31.04H90.677ZM87.0103 22.8479C82.6613 25.7473 79.2239 29.4023 76.7122 33.8088L78.4498 34.7992C80.8021 30.6724 84.0207 27.2447 88.1197 24.512L87.0103 22.8479ZM115.929 15.168L116.914 14.9982L116.747 14.0299L115.776 14.1797L115.929 15.168ZM120.153 39.68L119.167 39.8498L119.31 40.68H120.153V39.68ZM120.665 39.68V40.68H121.381L121.611 40.0015L120.665 39.68ZM128.921 15.36L129.183 14.395L128.276 14.1486L127.974 15.0385L128.921 15.36ZM134.104 16.768L135.034 17.1378L135.448 16.0967L134.367 15.803L134.104 16.768ZM121.625 48.128L121.783 49.1154L122.344 49.0254L122.554 48.4978L121.625 48.128ZM116.441 48.96L115.528 49.3692L115.842 50.0689L116.599 49.9474L116.441 48.96ZM102.233 17.28L102.08 16.2917L100.783 16.4917L101.32 17.6892L102.233 17.28ZM114.943 15.3378L119.167 39.8498L121.138 39.5102L116.914 14.9982L114.943 15.3378ZM120.153 40.68H120.665V38.68H120.153V40.68ZM121.611 40.0015L129.867 15.6815L127.974 15.0385L119.718 39.3585L121.611 40.0015ZM128.658 16.325L133.842 17.733L134.367 15.803L129.183 14.395L128.658 16.325ZM133.175 16.3982L120.695 47.7582L122.554 48.4978L135.034 17.1378L133.175 16.3982ZM121.466 47.1406L116.282 47.9726L116.599 49.9474L121.783 49.1154L121.466 47.1406ZM117.353 48.5508L103.145 16.8708L101.32 17.6892L115.528 49.3692L117.353 48.5508ZM102.385 18.2683L116.081 16.1563L115.776 14.1797L102.08 16.2917L102.385 18.2683ZM143.744 48.96L142.749 49.0625L142.851 50.0453L143.835 49.9559L143.744 48.96ZM140.48 17.28L140.328 16.2917L139.388 16.4366L139.485 17.3825L140.48 17.28ZM154.176 15.168L155.168 15.2904L155.33 13.9782L154.024 14.1797L154.176 15.168ZM150.08 48.384L150.171 49.3799L150.974 49.3069L151.072 48.5064L150.08 48.384ZM142.464 10.176L141.744 10.8701L141.757 10.8832L141.77 10.8958L142.464 10.176ZM142.464 1.792L141.757 1.08489L141.757 1.08489L142.464 1.792ZM150.848 1.792L150.128 2.48613L150.141 2.49922L150.154 2.51184L150.848 1.792ZM150.848 10.176L150.141 9.46889L150.141 9.46889L150.848 10.176ZM144.739 48.8575L141.475 17.1775L139.485 17.3825L142.749 49.0625L144.739 48.8575ZM140.632 18.2683L154.328 16.1563L154.024 14.1797L140.328 16.2917L140.632 18.2683ZM153.184 15.0456L149.088 48.2616L151.072 48.5064L155.168 15.2904L153.184 15.0456ZM149.989 47.3881L143.653 47.9641L143.835 49.9559L150.171 49.3799L149.989 47.3881ZM143.184 9.48186C142.207 8.46868 141.736 7.30768 141.736 5.952H139.736C139.736 7.83899 140.417 9.49399 141.744 10.8701L143.184 9.48186ZM141.736 5.952C141.736 4.59732 142.206 3.46459 143.171 2.4991L141.757 1.08489C140.418 2.42341 139.736 4.06401 139.736 5.952H141.736ZM143.171 2.4991C144.187 1.48318 145.344 0.999996 146.688 0.999996V-1C144.789 -1 143.13 -0.28852 141.757 1.08489L143.171 2.4991ZM146.688 0.999996C148.031 0.999996 149.16 1.48172 150.128 2.48613L151.568 1.09786C150.232 -0.287059 148.588 -1 146.688 -1V0.999996ZM150.154 2.51184C151.158 3.48038 151.64 4.60933 151.64 5.952H153.64C153.64 4.052 152.927 2.40761 151.542 1.07215L150.154 2.51184ZM151.64 5.952C151.64 7.29593 151.157 8.45297 150.141 9.46889L151.555 10.8831C152.929 9.5097 153.64 7.85073 153.64 5.952H151.64ZM150.141 9.46889C149.175 10.4344 148.043 10.904 146.688 10.904V12.904C148.576 12.904 150.217 12.2216 151.555 10.8831L150.141 9.46889ZM146.688 10.904C145.332 10.904 144.171 10.4332 143.158 9.45615L141.77 10.8958C143.146 12.2228 144.801 12.904 146.688 12.904V10.904ZM192.289 17.024L193.012 17.7153L193.778 16.914L192.902 16.234L192.289 17.024ZM182.369 27.392L181.646 26.7007L181.091 27.2811L181.538 27.9485L182.369 27.392ZM196.257 48.128L196.325 49.1257L198.05 49.0077L197.088 47.5715L196.257 48.128ZM184.097 48.96L183.215 49.4312L183.52 50.0018L184.165 49.9577L184.097 48.96ZM176.097 33.984L176.979 33.5128L176.362 32.3581L175.41 33.257L176.097 33.984ZM173.793 36.16L173.106 35.433L172.831 35.6935L172.797 36.0713L173.793 36.16ZM172.705 48.384L172.796 49.3799L173.627 49.3043L173.701 48.4727L172.705 48.384ZM166.369 48.96L165.372 49.0329L165.446 50.048L166.46 49.9559L166.369 48.96ZM163.105 4.288L162.953 3.29968L162.04 3.44035L162.108 4.36087L163.105 4.288ZM176.801 2.176L177.797 2.26362L177.909 0.993336L176.649 1.18768L176.801 2.176ZM174.369 29.824L173.373 29.7364L173.096 32.8787L175.133 30.4695L174.369 29.824ZM188.001 13.696L188.614 12.906L187.856 12.3179L187.237 13.0505L188.001 13.696ZM191.566 16.3327L181.646 26.7007L183.092 28.0833L193.012 17.7153L191.566 16.3327ZM181.538 27.9485L195.426 48.6845L197.088 47.5715L183.2 26.8355L181.538 27.9485ZM196.189 47.1303L184.029 47.9623L184.165 49.9577L196.325 49.1257L196.189 47.1303ZM184.979 48.4888L176.979 33.5128L175.215 34.4552L183.215 49.4312L184.979 48.4888ZM175.41 33.257L173.106 35.433L174.48 36.887L176.784 34.711L175.41 33.257ZM172.797 36.0713L171.709 48.2953L173.701 48.4727L174.789 36.2487L172.797 36.0713ZM172.614 47.3881L166.278 47.9641L166.46 49.9559L172.796 49.3799L172.614 47.3881ZM167.366 48.8871L164.102 4.21513L162.108 4.36087L165.372 49.0329L167.366 48.8871ZM163.257 5.27632L176.953 3.16432L176.649 1.18768L162.953 3.29968L163.257 5.27632ZM175.805 2.08837L173.373 29.7364L175.365 29.9116L177.797 2.26362L175.805 2.08837ZM175.133 30.4695L188.765 14.3415L187.237 13.0505L173.605 29.1785L175.133 30.4695ZM187.388 14.486L191.676 17.814L192.902 16.234L188.614 12.906L187.388 14.486ZM203.915 49.408L203.355 50.2363L203.553 50.3706L203.791 50.4003L203.915 49.408ZM200.395 45.056L199.478 45.4547L199.483 45.4669L199.489 45.4789L200.395 45.056ZM202.187 33.024L201.678 32.1634L201.67 32.1681L202.187 33.024ZM220.043 31.616L219.91 32.6071L221.152 32.7744L221.039 31.5255L220.043 31.616ZM219.915 30.208L220.911 30.1175L220.91 30.1085L219.915 30.208ZM217.483 26.176L216.906 26.993L216.914 26.9987L216.923 27.0043L217.483 26.176ZM205.131 26.752L204.174 27.0424L204.553 28.2901L205.66 27.6009L205.131 26.752ZM202.315 17.472L201.938 16.5458L201.093 16.8896L201.358 17.7624L202.315 17.472ZM225.995 18.432L225.379 19.2201L225.387 19.226L225.995 18.432ZM229.963 30.72L228.973 30.5786L228.97 30.5988L228.968 30.6191L229.963 30.72ZM228.171 48.384L228.262 49.3799L229.083 49.3052L229.166 48.4849L228.171 48.384ZM221.835 48.96L220.84 49.0629L220.942 50.0453L221.926 49.9559L221.835 48.96ZM220.875 39.68L221.87 39.5771L221.777 38.68H220.875V39.68ZM220.363 39.68V38.68H219.729L219.459 39.253L220.363 39.68ZM214.347 46.912L214.902 47.7441L214.911 47.7376L214.347 46.912ZM220.299 34.304L221.246 34.6256L221.686 33.33L220.318 33.3042L220.299 34.304ZM216.907 34.24L216.926 33.2402L216.916 33.24H216.907V34.24ZM209.995 34.688L209.831 33.7016L209.328 33.7853L209.101 34.2408L209.995 34.688ZM210.315 42.304L209.608 43.0111L209.968 43.3714L210.471 43.2917L210.315 42.304ZM205.515 48.472C204.796 48.472 204.315 48.4502 204.039 48.4157L203.791 50.4003C204.198 50.4511 204.783 50.472 205.515 50.472V48.472ZM204.475 48.5797C203.203 47.7191 202.137 46.4236 201.301 44.6331L199.489 45.4789C200.445 47.5284 201.726 49.1342 203.355 50.2363L204.475 48.5797ZM201.312 44.6573C200.512 42.8174 200.115 40.9262 200.115 38.976H198.115C198.115 41.2071 198.571 43.3693 199.478 45.4547L201.312 44.6573ZM200.115 38.976C200.115 36.5367 201.003 34.9077 202.704 33.8799L201.67 32.1681C199.275 33.615 198.115 35.954 198.115 38.976H200.115ZM202.696 33.8846C203.589 33.356 204.929 32.9189 206.779 32.6191C208.618 32.3212 210.902 32.168 213.643 32.168V30.168C210.837 30.168 208.439 30.3242 206.459 30.6449C204.491 30.9637 202.875 31.4547 201.678 32.1634L202.696 33.8846ZM213.643 32.168C215.642 32.168 217.731 32.3138 219.91 32.6071L220.176 30.6249C217.918 30.3209 215.74 30.168 213.643 30.168V32.168ZM221.039 31.5255L220.911 30.1175L218.919 30.2985L219.047 31.7065L221.039 31.5255ZM220.91 30.1085C220.709 28.0993 219.734 26.4913 218.043 25.3477L216.923 27.0043C218.133 27.8233 218.78 28.9034 218.92 30.3075L220.91 30.1085ZM218.06 25.359C216.399 24.187 214.326 23.64 211.915 23.64V25.64C214.026 25.64 215.665 26.117 216.906 26.993L218.06 25.359ZM211.915 23.64C209.436 23.64 206.994 24.4142 204.602 25.9031L205.66 27.6009C207.791 26.2738 209.872 25.64 211.915 25.64V23.64ZM206.088 26.4616L203.272 17.1816L201.358 17.7624L204.174 27.0424L206.088 26.4616ZM202.692 18.3982C206.222 16.9617 210.271 16.232 214.859 16.232V14.232C210.06 14.232 205.747 14.9956 201.938 16.5458L202.692 18.3982ZM214.859 16.232C219.408 16.232 222.878 17.2656 225.379 19.22L226.611 17.644C223.651 15.3317 219.697 14.232 214.859 14.232V16.232ZM225.387 19.226C227.799 21.0727 229.091 24.0166 229.091 28.288H231.091C231.091 23.5994 229.652 19.9726 226.603 17.638L225.387 19.226ZM229.091 28.288C229.091 29.2924 229.049 30.0492 228.973 30.5786L230.953 30.8614C231.048 30.1961 231.091 29.3316 231.091 28.288H229.091ZM228.968 30.6191L227.176 48.2831L229.166 48.4849L230.958 30.8209L228.968 30.6191ZM228.08 47.3881L221.744 47.9641L221.926 49.9559L228.262 49.3799L228.08 47.3881ZM222.83 48.8571L221.87 39.5771L219.88 39.7829L220.84 49.0629L222.83 48.8571ZM220.875 38.68H220.363V40.68H220.875V38.68ZM219.459 39.253C218.077 42.1801 216.182 44.4468 213.783 46.0864L214.911 47.7376C217.632 45.8786 219.748 43.3239 221.267 40.107L219.459 39.253ZM213.792 46.0799C211.41 47.6681 208.662 48.472 205.515 48.472V50.472C209.024 50.472 212.164 49.5692 214.902 47.7441L213.792 46.0799ZM220.318 33.3042L216.926 33.2402L216.888 35.2398L220.28 35.3038L220.318 33.3042ZM216.907 33.24C214.062 33.24 211.698 33.3904 209.831 33.7016L210.159 35.6744C211.876 35.3883 214.12 35.24 216.907 35.24V33.24ZM209.101 34.2408C208.461 35.5195 208.099 36.7426 208.099 37.888H210.099C210.099 37.1561 210.334 36.2459 210.889 35.1352L209.101 34.2408ZM208.099 37.888C208.099 38.9188 208.24 39.9119 208.525 40.8633L210.441 40.2887C210.214 39.5334 210.099 38.7346 210.099 37.888H208.099ZM208.525 40.8633C208.787 41.7362 209.121 42.5238 209.608 43.0111L211.022 41.5969C210.912 41.4868 210.691 41.1225 210.441 40.2887L208.525 40.8633ZM210.471 43.2917C213.166 42.865 215.45 41.9396 217.276 40.4764C219.106 39.0099 220.424 37.045 221.246 34.6256L219.352 33.9824C218.638 36.0856 217.524 37.7154 216.026 38.9156C214.524 40.1191 212.584 40.9323 210.159 41.3163L210.471 43.2917ZM252.675 47.36L251.727 47.0438L251.456 47.8566L252.218 48.249L252.675 47.36ZM253.828 43.904L254.131 42.9511L253.191 42.652L252.879 43.5878L253.828 43.904ZM260.1 6.4L260.037 5.40198L259.015 5.46638L259.103 6.48637L260.1 6.4ZM275.332 5.44L276.326 5.54626L276.452 4.36741L275.269 4.44198L275.332 5.44ZM271.748 38.976L272.742 39.0844L272.742 39.0823L271.748 38.976ZM260.804 48.536C258.391 48.536 255.838 47.8644 253.133 46.471L252.218 48.249C255.145 49.757 258.011 50.536 260.804 50.536V48.536ZM253.624 47.6762L254.776 44.2202L252.879 43.5878L251.727 47.0438L253.624 47.6762ZM253.524 44.8569C255.432 45.4638 257.021 45.8 258.244 45.8V43.8C257.333 43.8 255.978 43.5389 254.131 42.9511L253.524 44.8569ZM258.244 45.8C260 45.8 261.476 45.24 262.48 43.9847C263.451 42.772 263.852 41.0668 263.852 39.04H261.852C261.852 40.8532 261.484 42.028 260.919 42.7353C260.387 43.4 259.559 43.8 258.244 43.8V45.8ZM263.852 39.04C263.852 38.8384 263.788 37.9849 263.676 36.5843C263.561 35.1475 263.389 33.0684 263.16 30.348C262.701 24.9068 262.013 16.8952 261.096 6.31363L259.103 6.48637C260.021 17.0675 260.708 25.0772 261.167 30.516C261.396 33.2356 261.568 35.3112 261.683 36.7437C261.74 37.4602 261.783 38.0139 261.811 38.4062C261.825 38.6026 261.836 38.7561 261.843 38.8683C261.846 38.9245 261.848 38.968 261.85 39.0001C261.852 39.0361 261.852 39.0456 261.852 39.04H263.852ZM260.162 7.39802L275.394 6.43802L275.269 4.44198L260.037 5.40198L260.162 7.39802ZM274.337 5.33373L270.753 38.8697L272.742 39.0823L276.326 5.54626L274.337 5.33373ZM270.753 38.8676C270.385 42.2464 269.341 44.6328 267.741 46.1764C266.153 47.7091 263.886 48.536 260.804 48.536V50.536C264.249 50.536 267.07 49.6029 269.13 47.6156C271.178 45.6392 272.342 42.7456 272.742 39.0844L270.753 38.8676ZM308.285 46.4L307.564 45.7075L307.563 45.7078L308.285 46.4ZM284.285 45.824L283.306 46.028L283.379 46.3783L283.658 46.6028L284.285 45.824ZM284.605 27.968L283.655 27.6562L283.652 27.6654L284.605 27.968ZM287.933 20.992L287.116 20.4149L287.109 20.4247L287.933 20.992ZM295.357 13.504L295.812 12.6133L295.366 12.3859L294.917 12.6061L295.357 13.504ZM306.173 22.016L305.418 22.672L305.422 22.6768L306.173 22.016ZM301.373 23.36L302.265 22.9083L301.805 21.9992L300.905 22.4765L301.373 23.36ZM289.149 43.584H288.149V44.4139L288.965 44.5669L289.149 43.584ZM302.909 42.624L303.225 43.5727L303.739 43.4015L303.876 42.8777L302.909 42.624ZM310.357 36.224C310.357 40.7589 309.354 43.8426 307.564 45.7075L309.006 47.0925C311.312 44.6908 312.357 40.9904 312.357 36.224H310.357ZM307.563 45.7078C305.857 47.4868 302.491 48.536 297.085 48.536V50.536C302.602 50.536 306.702 49.4945 309.007 47.0922L307.563 45.7078ZM297.085 48.536C291.765 48.536 287.749 47.3304 284.912 45.0452L283.658 46.6028C286.965 49.2669 291.482 50.536 297.085 50.536V48.536ZM285.264 45.62C284.638 42.6137 284.325 39.61 284.325 36.608H282.325C282.325 39.75 282.652 42.8903 283.306 46.028L285.264 45.62ZM284.325 36.608C284.325 33.6295 284.739 30.8524 285.558 28.2706L283.652 27.6654C282.765 30.4596 282.325 33.4425 282.325 36.608H284.325ZM285.555 28.2798C286.428 25.6197 287.499 23.3848 288.757 21.5593L287.109 20.4247C285.722 22.4392 284.574 24.855 283.655 27.6562L285.555 28.2798ZM288.75 21.569C291.504 17.6708 293.858 15.3524 295.797 14.4019L294.917 12.6061C292.504 13.7889 289.909 16.4626 287.116 20.415L288.75 21.569ZM294.902 14.3947C298.88 16.4252 302.385 19.1815 305.418 22.672L306.928 21.36C303.732 17.6825 300.026 14.7642 295.812 12.6133L294.902 14.3947ZM305.422 22.6768C308.707 26.4079 310.357 30.9046 310.357 36.224H312.357C312.357 30.4501 310.551 25.4748 306.924 21.3552L305.422 22.6768ZM304.933 34.496C304.933 30.2974 304.048 26.429 302.265 22.9083L300.481 23.8117C302.112 27.0323 302.933 30.5879 302.933 34.496H304.933ZM300.905 22.4765C297.184 24.4488 294.134 27.4442 291.748 31.4215L293.462 32.4505C295.684 28.7478 298.479 26.0259 301.841 24.2435L300.905 22.4765ZM291.748 31.4215C289.364 35.3946 288.149 39.453 288.149 43.584H290.149C290.149 39.8643 291.238 36.1574 293.462 32.4505L291.748 31.4215ZM288.965 44.5669C290.422 44.8401 292.458 44.968 295.037 44.968V42.968C292.496 42.968 290.607 42.8399 289.333 42.6011L288.965 44.5669ZM295.037 44.968C297.715 44.968 300.446 44.4991 303.225 43.5727L302.593 41.6753C299.996 42.5409 297.479 42.968 295.037 42.968V44.968ZM303.876 42.8777C304.582 40.1885 304.933 37.3936 304.933 34.496H302.933C302.933 37.2304 302.602 39.8542 301.942 42.3703L303.876 42.8777ZM322.307 48.96L321.309 49.0329L321.383 50.048L322.397 49.9559L322.307 48.96ZM319.043 4.288L318.89 3.29968L317.978 3.44035L318.045 4.36087L319.043 4.288ZM332.739 2.176L333.735 2.2643L333.847 0.993201L332.586 1.18768L332.739 2.176ZM328.643 48.384L328.733 49.3799L329.565 49.3043L329.639 48.4723L328.643 48.384ZM323.304 48.8871L320.04 4.21513L318.045 4.36087L321.309 49.0329L323.304 48.8871ZM319.195 5.27632L332.891 3.16432L332.586 1.18768L318.89 3.29968L319.195 5.27632ZM331.742 2.0877L327.646 48.2957L329.639 48.4723L333.735 2.2643L331.742 2.0877ZM328.552 47.3881L322.216 47.9641L322.397 49.9559L328.733 49.3799L328.552 47.3881ZM344.932 48.96L343.934 49.0329L344.008 50.048L345.022 49.9559L344.932 48.96ZM341.668 4.288L341.515 3.29968L340.603 3.44035L340.67 4.36087L341.668 4.288ZM355.364 2.176L356.36 2.2643L356.472 0.993201L355.211 1.18768L355.364 2.176ZM351.268 48.384L351.358 49.3799L352.19 49.3043L352.264 48.4723L351.268 48.384ZM345.929 48.8871L342.665 4.21513L340.67 4.36087L343.934 49.0329L345.929 48.8871ZM341.82 5.27632L355.516 3.16432L355.211 1.18768L341.515 3.29968L341.82 5.27632ZM354.367 2.0877L350.271 48.2957L352.264 48.4723L356.36 2.2643L354.367 2.0877ZM351.177 47.3881L344.841 47.9641L345.022 49.9559L351.358 49.3799L351.177 47.3881ZM380.229 51.712L381.156 52.0852L381.158 52.0813L380.229 51.712ZM375.557 59.392L374.901 58.637L374.89 58.6462L374.88 58.6557L375.557 59.392ZM361.733 58.688L360.871 58.181L360.432 58.926L361.106 59.4675L361.733 58.688ZM363.653 55.424L363.994 54.4842L363.212 54.1999L362.791 54.917L363.653 55.424ZM375.493 49.472L376.478 49.6394L376.526 49.3567L376.417 49.0914L375.493 49.472ZM362.245 17.28L362.092 16.2917L360.836 16.4854L361.32 17.6606L362.245 17.28ZM375.941 15.168L376.926 14.9986L376.76 14.0299L375.788 14.1797L375.941 15.168ZM380.165 39.744L379.179 39.9134L379.322 40.744H380.165V39.744ZM380.677 39.744V40.744H381.394L381.624 40.0647L380.677 39.744ZM388.933 15.36L389.195 14.395L388.287 14.1484L387.985 15.0393L388.933 15.36ZM394.117 16.768L395.046 17.1373L395.459 16.0965L394.379 15.803L394.117 16.768ZM379.301 51.3388C377.824 55.0099 376.339 57.3883 374.901 58.637L376.212 60.147C378.017 58.5797 379.646 55.8381 381.156 52.0852L379.301 51.3388ZM374.88 58.6557C373.526 59.8994 371.677 60.568 369.22 60.568V62.568C372.055 62.568 374.429 61.786 376.233 60.1283L374.88 58.6557ZM369.22 60.568C366.885 60.568 364.604 59.7122 362.359 57.9085L361.106 59.4675C363.64 61.5038 366.351 62.568 369.22 62.568V60.568ZM362.594 59.195L364.514 55.931L362.791 54.917L360.871 58.181L362.594 59.195ZM363.311 56.3638C364.84 56.9198 366.493 57.192 368.26 57.192V55.192C366.7 55.192 365.281 54.9522 363.994 54.4842L363.311 56.3638ZM368.26 57.192C370.204 57.192 371.961 56.5534 373.499 55.3041L372.238 53.7519C371.045 54.7212 369.73 55.192 368.26 55.192V57.192ZM373.499 55.3041C375.104 54.0001 376.066 52.0658 376.478 49.6394L374.507 49.3046C374.151 51.4009 373.364 52.8372 372.238 53.7519L373.499 55.3041ZM376.417 49.0914L363.169 16.8994L361.32 17.6606L374.568 49.8526L376.417 49.0914ZM362.397 18.2683L376.093 16.1563L375.788 14.1797L362.092 16.2917L362.397 18.2683ZM374.955 15.3374L379.179 39.9134L381.15 39.5746L376.926 14.9986L374.955 15.3374ZM380.165 40.744H380.677V38.744H380.165V40.744ZM381.624 40.0647L389.88 15.6807L387.985 15.0393L379.729 39.4233L381.624 40.0647ZM388.67 16.325L393.854 17.733L394.379 15.803L389.195 14.395L388.67 16.325ZM393.187 16.3987L379.299 51.3427L381.158 52.0813L395.046 17.1373L393.187 16.3987Z" fill="#2B76A0" fill-opacity="0.22" mask="url(#path-1-outside-1_1_2)"/>
</g>
<defs>
<filter id="filter0_d_1_2" x="0.488007" y="0" width="397.629" height="69.568" filterUnits="userSpaceOnUse" color-interpolation-filters="sRGB">
<feFlood flood-opacity="0" result="BackgroundImageFix"/>
<feColorMatrix in="SourceAlpha" type="matrix" values="0 0 0 0 0 0 0 0 0 0 0 0 0 0 0 0 0 0 127 0" result="hardAlpha"/>
<feOffset dy="4"/>
<feGaussianBlur stdDeviation="2"/>
<feComposite in2="hardAlpha" operator="out"/>
<feColorMatrix type="matrix" values="0 0 0 0 0 0 0 0 0 0 0 0 0 0 0 0 0 0 0.25 0"/>
<feBlend mode="normal" in2="BackgroundImageFix" result="effect1_dropShadow_1_2"/>
<feBlend mode="normal" in="SourceGraphic" in2="effect1_dropShadow_1_2" result="shape"/>
</filter>
</defs>
</svg>
